P3
10 10
255
0 0 0 0 0 0 255 127 127 255 127 127 255 127 127 255 127 127 255 127 127 255 127 127 255 127 127 255 127 127 
0 0 0 255 127 127 255 127 127 255 127 127 255 127 127 255 127 127 255 127 127 255 127 127 255 127 127 255 127 127 
0 0 0 0 0 0 255 127 127 255 127 127 255 127 127 255 127 127 255 127 127 255 127 127 255 127 127 255 127 127 
0 0 0 0 0 0 255 127 127 255 127 127 255 127 127 255 127 127 255 127 127 255 127 127 255 127 127 255 127 127 
0 0 0 0 0 0 255 127 127 255 127 127 255 127 127 255 127 127 255 127 127 255 127 127 255 127 127 255 127 127 
0 0 0 0 0 0 255 127 127 255 127 127 255 127 127 255 127 127 255 127 127 255 127 127 255 127 127 255 127 127 
0 0 0 0 0 0 255 127 127 255 127 127 255 127 127 255 127 127 255 127 127 255 127 127 255 127 127 255 127 127 
0 0 0 0 0 0 255 127 127 255 127 127 255 127 127 255 127 127 255 127 127 255 127 127 255 127 127 255 127 127 
0 0 0 0 0 0 255 127 127 255 127 127 255 127 127 255 127 127 255 127 127 255 127 127 255 127 127 255 127 127 
0 0 0 0 0 0 0 0 0 0 0 0 0 0 0 0 0 0 0 0 0 0 0 0 0 0 0 0 0 0 
